<svg width="173" height="60" viewBox="0 0 173 60" fill="none" xmlns="http://www.w3.org/2000/svg">
<path d="M49.3792 16.2869C49.6743 16.4133 49.724 17.4573 49.8069 17.8017C51.5358 24.9875 49.6296 32.3894 44.7322 37.9178C44.0144 38.7279 43.2087 39.4665 42.4171 40.2034C42.7913 41.2455 43.2365 42.5406 44.3116 43.0031C44.7965 43.2115 45.2937 43.3552 45.7768 43.5955C46.2469 43.831 46.6631 44.1613 46.9994 44.5656C47.3285 44.9605 49.0357 47.5091 49.3208 47.9751C50.203 49.4172 53.6882 53.8981 54.0924 55.113C53.835 55.4857 47.5004 59.8024 47.3558 59.8297C47.1445 59.7635 45.3474 57.059 45.0599 56.6578C43.4168 54.3576 41.733 52.0867 40.0095 49.8462C39.4413 48.4494 40.0155 46.7749 39.463 44.8725C38.6913 44.1766 38.5801 44.0054 38.0399 43.1401C35.0482 44.1869 32.6753 45.3932 29.3839 45.4999C26.0008 45.6097 22.8266 45.4418 19.6924 44.0263C20.4197 43.1531 23.0452 39.8845 23.7494 39.3559C25.2991 39.2839 26.6963 39.5079 28.2 39.5373C32.2372 39.6163 36.5647 37.6873 39.4377 34.8861C42.0489 32.3401 44.0903 28.4635 44.3974 24.7961C44.5231 23.2952 44.3824 21.6398 44.4102 20.1027C45.7818 19.0796 48.125 17.3983 49.3792 16.2869Z" fill="#2BB44A"/>
<path d="M94.4863 11.868C100.367 11.7092 108.576 10.6388 108.675 18.9041C108.724 22.986 108.413 25.173 104.515 27.1462C105.065 28.5182 105.723 29.9063 106.316 31.2667L109.63 38.9077C108.346 38.9483 106.117 38.9524 104.867 38.8898C104.4 37.9298 103.917 36.6708 103.506 35.6727C102.988 34.0681 102.103 32.4438 101.509 30.8538C101.126 29.8268 100.529 28.68 100.258 27.6305C99.6854 27.6244 97.3759 27.5493 96.9997 27.7163C96.7535 28.6601 96.8681 31.859 96.8834 32.982C96.9114 34.9402 96.8443 36.9636 96.8587 38.9115C95.574 38.955 94.0465 38.9145 92.7457 38.9086C92.654 37.0641 92.7312 34.4596 92.7287 32.5649L92.7185 19.9507C92.7176 17.3655 92.7677 14.5143 92.6582 11.9445C93.2067 11.8891 93.9242 11.8861 94.4863 11.868ZM96.9615 23.5363C99.0401 23.4611 101.919 23.921 103.466 22.8849C104.734 21.4633 104.834 17.9333 103.438 16.654C102.257 15.5704 98.5748 15.9386 96.987 15.9675C96.7484 16.6303 96.8103 22.7943 96.9615 23.5363Z" fill="#2BB44A"/>
<path d="M47.6407 10.7558C47.7669 10.7224 48.4922 10.7536 48.6877 10.7509C50.5291 10.7261 51.738 10.7382 53.5258 11.1424C50.9192 11.7301 48.1832 11.7621 45.569 12.3272C33.5117 14.9343 23.7502 20.3129 16.0033 30.0554C14.6609 31.7435 13.3104 33.4944 12.1791 35.331C11.4232 36.5582 10.0837 39.2142 9.21808 40.1805C9.17825 40.2248 9.07908 40.344 9.02159 40.3428C8.26206 40.328 4.68307 35.4559 3.92267 34.6244C3.80701 34.5133 2.95791 33.4685 2.81267 33.2913C1.89158 32.1674 0.802856 30.9839 0 29.7851C0.0732908 29.152 0.408044 27.8468 0.563097 27.177C0.988862 25.3376 1.28326 23.7933 2.01941 22.06C3.9529 23.7119 5.57987 25.5989 7.36074 27.4074C8.1369 28.1956 8.68365 28.8236 9.65307 29.3909C9.68568 29.3496 9.71905 29.3088 9.7531 29.2687C10.3399 28.5824 11.2666 27.699 11.9035 26.9999C16.9151 21.4256 22.4813 17.361 29.3793 14.4549C35.605 11.832 40.9893 11.2666 47.6407 10.7558Z" fill="#252626"/>
<path d="M25.837 0.0497864C27.7547 -0.0734337 29.387 0.0422592 31.2507 0.28469C34.8251 0.749655 41.6474 3.78102 43.7269 6.74331C43.0693 7.40065 39.993 9.9431 38.9552 10.1033C38.4276 9.85449 37.2798 8.96465 36.8662 8.68743C29.6925 3.87911 20.4253 5.52721 14.7896 11.8851C14.7413 11.9334 14.6859 11.9903 14.6428 12.0426C11.8049 15.4844 10.4581 20.1109 10.8132 24.5324C9.73209 23.4768 8.73481 22.1769 7.64963 21.0834C6.83943 20.2671 6.25788 19.3943 5.35449 18.6074C5.6822 15.1792 8.06795 10.5237 10.3412 7.99367C14.2625 3.6296 19.9102 0.390273 25.837 0.0497864Z" fill="#2BB44A"/>
<path d="M76.4295 11.8639C77.3801 11.8097 79.1189 11.8846 80.1547 11.8855L88.8985 11.9117C88.9392 13.2179 88.9138 14.6741 88.9146 15.992C85.5623 15.9109 81.8259 15.9785 78.4521 16.0134C78.5212 17.6096 78.4674 19.2545 78.4849 20.8559C78.4939 21.6774 78.4369 22.5028 78.5351 23.3188C79.0969 23.5649 86.2357 23.4384 87.4898 23.4639L87.4754 27.5129C84.5877 27.6028 81.3845 27.5348 78.4788 27.534L78.4876 31.9365L78.4781 34.7425C79.9877 34.8775 81.7507 34.8088 83.2866 34.8046C85.1369 34.7995 87.0576 34.8244 88.8985 34.7629C88.9758 35.8429 88.907 37.7857 88.8883 38.9105C86.0302 39.0368 83.1056 38.9042 80.2424 38.9071C78.756 38.9088 75.5889 39.131 74.3047 38.83C74.4028 36.2181 74.3157 33.4007 74.3393 30.7633C74.3953 24.5039 74.2686 18.1961 74.3416 11.9408C75.0371 11.9045 75.7332 11.8788 76.4295 11.8639Z" fill="#2BB44A"/>
<path d="M157.546 11.9547C162.16 11.8013 167.505 11.9206 172.168 11.9302L172.161 15.9889C168.811 15.7985 165.123 16.0322 161.722 15.9243C161.71 18.4332 161.715 20.9422 161.738 23.451L170.706 23.4475C170.725 24.5397 170.794 26.5843 170.599 27.562C167.644 27.5415 164.688 27.5414 161.733 27.5616L161.722 29.848L161.728 34.8269C165.142 34.8925 168.746 34.8332 172.176 34.833C172.183 36.2096 172.174 37.5861 172.149 38.9625C171.15 38.8483 169.187 38.8939 168.133 38.8954L161.052 38.9164C160.178 38.9184 158.379 38.9666 157.566 38.8543C157.492 36.7009 157.547 34.3865 157.547 32.215L157.544 19.4372C157.543 18.5545 157.427 12.4735 157.546 11.9547Z" fill="#252626"/>
<path d="M120.163 11.6862C120.369 11.6429 120.803 11.6351 121.032 11.6319C125.076 11.5759 127.577 13.3977 128.726 17.2553C127.439 17.7968 126.155 18.4254 124.891 19.0251C124.183 16.9532 123.117 15.6807 120.816 15.7188C118.491 15.7146 117.268 16.9912 117.325 19.3992C117.431 23.9258 124.637 22.9903 127.168 25.8131C128.797 27.364 128.815 28.7508 129.02 30.8318C129.502 35.7386 126.419 39.2147 121.315 39.2618C117.075 39.3562 113.635 37.7969 112.554 33.3862C113.901 32.8178 115.096 32.1722 116.527 31.6154C117.458 34.2286 118.729 35.2198 121.532 35.0447C124.182 34.8791 125.231 33.1056 124.856 30.5792C124.293 26.7789 117.769 27.246 115.379 24.9611C114.017 23.6586 113.433 22.8076 113.235 20.9284C112.731 15.5871 114.423 12.2581 120.163 11.6862Z" fill="#252626"/>
<path d="M67.2177 11.9187C68.5854 11.8547 70.1951 11.8713 71.5569 11.9032C71.1617 13.9613 70.4972 16.1361 69.988 18.1761C69.2907 21.0658 68.4825 24.0032 67.7436 26.8909C66.73 30.9097 65.6902 34.9218 64.6244 38.9271C63.7804 38.9275 61.1288 39.0397 60.5657 38.704C60.2128 37.6871 59.9212 36.0929 59.6384 34.9943L57.4756 26.6764L55.0925 17.3649C54.6676 15.7231 54.0128 13.579 53.748 11.9221C55.1917 11.8806 56.6363 11.874 58.0803 11.9026C59.2621 16.4457 60.1946 21.3244 61.329 25.9102C61.621 27.0908 62.5407 30.7203 62.5915 31.5688C63.0634 30.0215 63.3922 28.3192 63.7487 26.7394C64.8637 21.7979 66.1138 16.8593 67.2177 11.9187Z" fill="#2BB44A"/>
<path d="M139.202 11.9552C141.175 11.8771 143.365 11.9192 145.351 11.9178L155.435 11.9218C155.403 13.2331 155.425 14.6508 155.423 15.9701C153.474 15.9712 151.343 16.0128 149.408 15.9379L149.41 32.6798C149.424 34.7516 149.422 36.8235 149.402 38.8953C148.509 38.9093 145.919 38.995 145.235 38.8233L145.222 15.9672C143.341 15.9708 141.037 16.0362 139.188 15.9434L139.202 11.9552Z" fill="#252626"/>
<path d="M133.217 11.9436C134.588 11.9199 135.958 11.9165 137.329 11.9335C137.259 18.4287 137.333 25.0175 137.321 31.5204L137.313 36.3607C137.313 36.9703 137.359 38.3578 137.274 38.8709L137.108 38.9202C136.103 38.9037 134.119 39.1074 133.246 38.8038C133.171 38.7779 133.169 38.7508 133.138 38.68C132.819 37.9397 132.95 17.6991 132.972 15.1592C132.978 14.4892 133.065 13.8226 133.075 13.1524C133.081 12.8322 132.908 12.3377 133.025 12.0544C133.049 11.9968 133.16 11.9691 133.217 11.9436Z" fill="#252626"/>
<path d="M40.2109 15.3271C40.7962 15.2698 41.1144 15.31 41.3626 15.9052C46.6757 28.6438 34.9842 41.1523 21.9314 37.147C19.9043 36.5249 18.0218 35.0897 15.8939 35.9806C15.0946 36.3152 14.4767 36.8535 13.6787 37.2161C14.0733 35.8891 15.2202 34.1316 15.9339 32.9012C16.3387 32.1594 17.9393 30.0655 18.5719 29.5308C18.7625 30.1368 18.9242 30.7496 19.0801 31.367C20.4114 36.638 26.4962 37.3005 30.9098 35.7074C36.2794 33.7692 41.2312 28.0433 40.3858 22.0271C40.0373 19.5469 38.0992 17.9619 36.168 16.6447C37.7751 16.0157 38.5335 15.757 40.2109 15.3271Z" fill="#2BB44A"/>
<path d="M29.1254 20.5466C29.7442 20.7287 30.135 24.9536 33.5697 21.7583C34.4589 24.5262 34.3657 27.0283 31.7009 28.8801C30.8485 29.4725 30.1748 29.7548 29.1434 29.8726C27.3438 29.922 26.6226 29.5831 25.1126 28.4955C24.3213 27.9255 23.3017 26.2314 23.21 25.3024C23.3933 24.3435 28.0464 21.5919 29.1254 20.5466Z" fill="#252626"/>
<path d="M59.7686 45.4224V44.5587H64.3064V45.4224H62.5485V50.2463H61.5265V45.4224H59.7686Z" fill="#2BB44A"/>
<path d="M67.837 50.2463V44.5587H69.9699C70.4068 44.5587 70.7734 44.6346 71.0696 44.7864C71.3677 44.9383 71.5926 45.1512 71.7445 45.4252C71.8981 45.6973 71.975 46.0149 71.975 46.3777C71.975 46.7425 71.8972 47.0591 71.7417 47.3275C71.588 47.5941 71.3612 47.8006 71.0613 47.9468C70.7614 48.0912 70.3929 48.1634 69.956 48.1634H68.4369V47.3081H69.8171C70.0726 47.3081 70.2818 47.2729 70.4448 47.2026C70.6077 47.1303 70.728 47.0257 70.8058 46.8887C70.8854 46.7499 70.9252 46.5795 70.9252 46.3777C70.9252 46.1759 70.8854 46.0038 70.8058 45.8612C70.7262 45.7168 70.6049 45.6075 70.442 45.5335C70.2791 45.4576 70.0689 45.4196 69.8116 45.4196H68.8674V50.2463H67.837ZM70.7752 47.6691L72.1833 50.2463H71.0335L69.6505 47.6691H70.7752Z" fill="#2BB44A"/>
<path d="M79.1645 44.5587H80.1948V48.2745C80.1948 48.6818 80.0985 49.0401 79.906 49.3493C79.7153 49.6585 79.4468 49.9001 79.1006 50.0741C78.7544 50.2463 78.3499 50.3324 77.887 50.3324C77.4223 50.3324 77.0168 50.2463 76.6706 50.0741C76.3244 49.9001 76.0559 49.6585 75.8653 49.3493C75.6746 49.0401 75.5792 48.6818 75.5792 48.2745V44.5587H76.6095V48.1884C76.6095 48.4254 76.6614 48.6365 76.765 48.8216C76.8706 49.0068 77.0187 49.1521 77.2094 49.2576C77.4001 49.3613 77.626 49.4132 77.887 49.4132C78.1481 49.4132 78.3739 49.3613 78.5646 49.2576C78.7572 49.1521 78.9053 49.0068 79.009 48.8216C79.1126 48.6365 79.1645 48.4254 79.1645 48.1884V44.5587Z" fill="#2BB44A"/>
<path d="M87.0615 46.1222C87.0356 45.8797 86.9263 45.6909 86.7338 45.5557C86.5431 45.4206 86.295 45.353 85.9895 45.353C85.7747 45.353 85.5905 45.3854 85.4369 45.4502C85.2832 45.515 85.1656 45.6029 85.0842 45.714C85.0027 45.8251 84.961 45.9519 84.9592 46.0945C84.9592 46.213 84.986 46.3157 85.0397 46.4027C85.0953 46.4898 85.1703 46.5638 85.2647 46.6249C85.3591 46.6842 85.4637 46.7341 85.5785 46.7749C85.6933 46.8156 85.809 46.8499 85.9256 46.8776L86.4588 47.0109C86.6736 47.0609 86.88 47.1285 87.0781 47.2137C87.2781 47.2988 87.4568 47.4062 87.6141 47.5358C87.7734 47.6654 87.8993 47.8219 87.9918 48.0051C88.0844 48.1884 88.1307 48.4032 88.1307 48.6494C88.1307 48.9827 88.0455 49.2761 87.8752 49.5298C87.7049 49.7816 87.4586 49.9788 87.1365 50.1213C86.8162 50.262 86.4283 50.3324 85.9728 50.3324C85.5304 50.3324 85.1462 50.2639 84.8203 50.1269C84.4963 49.9899 84.2427 49.7899 84.0594 49.527C83.878 49.2641 83.7798 48.9438 83.765 48.5661H84.7787C84.7935 48.7642 84.8546 48.929 84.962 49.0605C85.0693 49.1919 85.2091 49.29 85.3813 49.3548C85.5553 49.4196 85.7497 49.452 85.9645 49.452C86.1885 49.452 86.3848 49.4187 86.5533 49.3521C86.7236 49.2836 86.8569 49.1891 86.9532 49.0688C87.0494 48.9466 87.0985 48.804 87.1004 48.6411C87.0985 48.493 87.055 48.3708 86.9698 48.2745C86.8847 48.1764 86.7653 48.0949 86.6116 48.0301C86.4598 47.9635 86.282 47.9042 86.0784 47.8524L85.4313 47.6858C84.9629 47.5654 84.5926 47.3831 84.3204 47.1387C84.0501 46.8924 83.915 46.5657 83.915 46.1583C83.915 45.8232 84.0057 45.5298 84.1871 45.278C84.3704 45.0262 84.6195 44.8309 84.9342 44.692C85.2489 44.5513 85.6053 44.481 86.0034 44.481C86.407 44.481 86.7606 44.5513 87.0643 44.692C87.3697 44.8309 87.6095 45.0244 87.7835 45.2724C87.9576 45.5187 88.0474 45.8019 88.0529 46.1222H87.0615Z" fill="#2BB44A"/>
<path d="M91.4551 45.4224V44.5587H95.993V45.4224H94.235V50.2463H93.213V45.4224H91.4551Z" fill="#2BB44A"/>
<path d="M104.119 50.2463V44.5587H106.297C106.708 44.5587 107.049 44.6235 107.321 44.7531C107.595 44.8809 107.8 45.0558 107.935 45.278C108.072 45.5002 108.141 45.752 108.141 46.0334C108.141 46.2648 108.096 46.4629 108.007 46.6277C107.918 46.7906 107.799 46.923 107.649 47.0248C107.499 47.1266 107.331 47.1998 107.146 47.2442V47.2998C107.348 47.3109 107.542 47.3729 107.727 47.4858C107.914 47.5969 108.067 47.7543 108.185 47.9579C108.303 48.1616 108.363 48.4078 108.363 48.6966C108.363 48.991 108.291 49.2558 108.149 49.4909C108.006 49.7242 107.792 49.9084 107.505 50.0436C107.218 50.1787 106.857 50.2463 106.422 50.2463H104.119ZM105.15 49.3854H106.258C106.632 49.3854 106.901 49.3141 107.066 49.1715C107.232 49.0271 107.316 48.842 107.316 48.6161C107.316 48.4476 107.274 48.2958 107.191 48.1607C107.107 48.0237 106.989 47.9163 106.835 47.8385C106.682 47.7589 106.498 47.7191 106.285 47.7191H105.15V49.3854ZM105.15 46.9776H106.169C106.347 46.9776 106.507 46.9452 106.649 46.8804C106.792 46.8138 106.904 46.7203 106.985 46.5999C107.069 46.4777 107.11 46.3333 107.11 46.1667C107.11 45.9464 107.032 45.7649 106.877 45.6224C106.723 45.4798 106.495 45.4085 106.191 45.4085H105.15V46.9776Z" fill="#2BB44A"/>
<path d="M115.5 44.5587H116.53V48.2745C116.53 48.6818 116.434 49.0401 116.242 49.3493C116.051 49.6585 115.783 49.9001 115.436 50.0741C115.09 50.2463 114.686 50.3324 114.223 50.3324C113.758 50.3324 113.353 50.2463 113.006 50.0741C112.66 49.9001 112.392 49.6585 112.201 49.3493C112.01 49.0401 111.915 48.6818 111.915 48.2745V44.5587H112.945V48.1884C112.945 48.4254 112.997 48.6365 113.101 48.8216C113.206 49.0068 113.354 49.1521 113.545 49.2576C113.736 49.3613 113.962 49.4132 114.223 49.4132C114.484 49.4132 114.71 49.3613 114.9 49.2576C115.093 49.1521 115.241 49.0068 115.345 48.8216C115.448 48.6365 115.5 48.4254 115.5 48.1884V44.5587Z" fill="#2BB44A"/>
<path d="M120.056 45.4224V44.5587H124.594V45.4224H122.836V50.2463H121.814V45.4224H120.056Z" fill="#2BB44A"/>
<path d="M133.481 44.5587L134.962 49.0355H135.02L136.497 44.5587H137.63L135.625 50.2463H134.353L132.351 44.5587H133.481Z" fill="#2BB44A"/>
<path d="M141.035 50.2463V44.5587H144.735V45.4224H142.066V46.9665H144.543V47.8302H142.066V49.3826H144.757V50.2463H141.035Z" fill="#2BB44A"/>
<path d="M148.442 50.2463V44.5587H150.574C151.011 44.5587 151.378 44.6346 151.674 44.7864C151.972 44.9383 152.197 45.1512 152.349 45.4252C152.503 45.6973 152.579 46.0149 152.579 46.3777C152.579 46.7425 152.502 47.0591 152.346 47.3275C152.193 47.5941 151.966 47.8006 151.666 47.9468C151.366 48.0912 150.997 48.1634 150.56 48.1634H149.041V47.3081H150.422C150.677 47.3081 150.886 47.2729 151.049 47.2026C151.212 47.1303 151.333 47.0257 151.41 46.8887C151.49 46.7499 151.53 46.5795 151.53 46.3777C151.53 46.1759 151.49 46.0038 151.41 45.8612C151.331 45.7168 151.209 45.6075 151.046 45.5335C150.884 45.4576 150.673 45.4196 150.416 45.4196H149.472V50.2463H148.442ZM151.38 47.6691L152.788 50.2463H151.638L150.255 47.6691H151.38Z" fill="#2BB44A"/>
<path d="M157.214 44.5587V50.2463H156.184V44.5587H157.214Z" fill="#2BB44A"/>
<path d="M160.986 50.2463V44.5587H164.629V45.4224H162.016V46.9665H164.379V47.8302H162.016V50.2463H160.986Z" fill="#2BB44A"/>
<path d="M167.835 44.5587H168.999L170.39 47.0748H170.445L171.837 44.5587H173L170.931 48.1246V50.2463H169.904V48.1246L167.835 44.5587Z" fill="#2BB44A"/>
</svg>
